<svg width="374" height="185" viewBox="0 0 374 185" fill="none" xmlns="http://www.w3.org/2000/svg">
<path d="M60.1004 4.94714L59.852 27.0502L64.3223 26.8018C64.3223 36.3444 63.3289 45.8348 63.3289 55.3619C67.1679 54.448 71.8048 55.1136 75.7464 55.1136C74.216 55.8512 72.3929 55.995 70.7794 56.6188C67.1028 58.0406 63.4404 60.347 60.8454 63.3091C61.1298 56.6876 61.6538 50.0555 62.1095 43.4412C62.3447 40.0237 62.8322 36.7057 62.8322 33.2589H0C0 37.7523 0.539165 42.191 0.73536 46.6697C0.96707 51.9633 0.771372 57.2688 1.00308 62.5641C1.14762 65.8624 1.44986 69.1974 1.4891 72.498C1.70169 90.3657 1.67536 108.291 1.23802 126.141C1.10838 131.44 0.745046 136.724 0.745046 142.036H60.8454V138.807C65.4089 141.883 70.0018 143.161 75.498 142.758C77.6341 142.602 79.5213 141.947 81.7067 142.045C90.0468 142.421 98.4402 143.52 106.79 143.526V139.801H124.174C124.004 140.719 123.929 141.598 123.926 142.532C132.794 142.532 141.636 141.292 150.499 141.291C150.499 148.259 149.754 155.187 149.754 162.152C152.643 162.696 155.562 163.078 158.447 163.642C164.359 164.798 170.586 164.819 176.576 164.409C185.581 163.792 194.915 161.988 200.112 153.708C201.24 151.911 202.031 150.014 202.659 147.996C203.43 145.514 204.279 142.91 204.391 140.297C209.891 139.863 215.515 138.822 221.03 138.807C220.337 140.442 218.986 141.716 218.128 143.277C216.381 146.456 215.297 149.862 214.86 153.46C213.656 163.393 214.772 177.869 224.756 183.181C229.983 185.964 236.031 184.162 241.643 184.256C242.684 184.274 243.598 184.709 244.626 184.747C246.183 184.805 247.805 184.399 249.332 184.539C250.196 184.618 250.937 184.994 251.826 184.998C256.855 185.022 261.953 184.291 266.975 184.03C268.095 183.972 269.086 184.483 270.203 184.502C273.181 184.552 276.156 184.255 279.144 184.255V185C282.623 184.928 286.098 184.344 289.575 184.259C295.714 184.108 301.833 184.503 307.952 184.503V162.152L304.972 162.649V157.185L307.456 157.682L307.207 142.781C312.187 142.781 317.136 143.523 322.108 143.526V139.801H339.493C339.321 140.72 339.247 141.598 339.244 142.532C349.849 142.532 360.431 141.042 371.033 141.042C371.033 135.485 371.872 129.939 372.252 124.403C373.266 109.705 374.833 94.3393 372.377 79.7001C370.896 70.8701 367.362 60.4419 358.119 57.1227C353.872 55.5979 348.95 55.8711 344.708 57.267C342.91 57.8591 341.075 59.2163 339.244 59.528C335.825 60.1106 332.268 59.7513 328.814 59.8359C323.857 59.9574 318.875 60.3289 313.913 60.3289V61.3223C305.933 53.6908 292.984 52.8958 283.366 57.7848C280.344 59.3214 276.521 61.7164 274.922 64.7992H274.425C271.862 56.0889 259.981 53.9536 252.322 55.614C250.797 55.9443 249.253 56.4832 247.852 57.1647C247.042 57.5588 246.039 58.4164 245.12 58.4551C244.393 58.4859 243.732 57.905 243.133 57.5655C241.954 56.895 240.717 56.334 239.408 55.9649C234.901 54.6929 230.165 54.9191 225.749 56.3553V54.8652C222.093 55.4052 218.647 57.308 215.07 58.2234C211.219 59.2086 206.857 59.2118 202.901 59.1592C199.244 59.1105 195.618 58.7598 191.974 58.6002C189.419 58.4884 186.53 58.7782 184.026 58.2731C182.882 58.0424 181.834 57.1836 180.798 56.6653C179.15 55.8415 177.404 55.241 175.583 54.9363C166.422 53.403 157.067 58.9585 153.48 67.531C152.087 65.1476 150.754 62.7893 148.757 60.8353C144.082 56.2595 137.535 55.4561 131.376 56.7154C129.741 57.05 128.14 57.6448 126.658 58.4064C125.691 58.9031 124.78 59.6564 123.678 59.7992C121.485 60.0828 119.181 59.7453 116.972 59.8419C110.854 60.1099 104.728 60.3289 98.5945 60.3289V61.5707C94.9631 57.9694 90.0753 55.5226 84.9353 55.1136C86.4283 54.6723 88.1044 54.8652 89.6539 54.8652H98.3461V55.8586C101.826 55.7869 105.3 55.2025 108.777 55.1173C114.915 54.9668 121.034 55.3619 127.155 55.3619V33.0106L124.174 33.5072V28.0436L126.658 28.5403V4.94714C122.266 4.95931 117.885 5.82928 113.495 5.93681C108.357 6.06273 103.221 5.16718 98.0978 4.94714C98.0978 5.39343 98.1012 5.32488 98.3461 5.69219C94.6482 5.69219 90.84 5.29434 87.1704 5.45353C78.2577 5.84045 68.9399 6.58823 60.1004 4.94714Z" fill="#0B1524"/>
<path d="M60.1004 0L59.852 22.103L64.3223 21.8547C64.3223 31.3972 63.3289 40.8876 63.3289 50.4148C67.1679 49.5009 71.8048 50.1664 75.7464 50.1664C74.216 50.904 72.3929 51.0478 70.7794 51.6717C67.1028 53.0935 63.4404 55.3999 60.8454 58.362C61.1298 51.7405 61.6538 45.1083 62.1095 38.4941C62.3447 35.0765 62.8322 31.7586 62.8322 28.3118H0C0 32.8051 0.539165 37.2439 0.73536 41.7226C0.96707 47.0161 0.771372 52.3216 1.00308 57.6169C1.14762 60.9152 1.44986 64.2503 1.4891 67.5509C1.70169 85.4186 1.67536 103.343 1.23802 121.194C1.10838 126.493 0.745046 131.777 0.745046 137.089H60.8454V133.86C65.4089 136.936 70.0018 138.214 75.498 137.811C77.6341 137.654 79.5213 137 81.7067 137.098C90.0468 137.474 98.4402 138.573 106.79 138.579V134.853H124.174C124.004 135.772 123.929 136.651 123.926 137.585C132.794 137.585 141.636 136.344 150.499 136.343C150.499 143.311 149.754 150.24 149.754 157.205C152.643 157.749 155.562 158.131 158.447 158.695C164.359 159.851 170.586 159.872 176.576 159.462C185.581 158.845 194.915 157.041 200.112 148.761C201.24 146.964 202.031 145.067 202.659 143.049C203.43 140.566 204.279 137.963 204.391 135.35C209.891 134.916 215.515 133.875 221.03 133.86C220.337 135.495 218.986 136.769 218.128 138.33C216.381 141.508 215.297 144.915 214.86 148.513C213.656 158.446 214.772 172.922 224.756 178.234C229.983 181.016 236.031 179.215 241.643 179.309C242.684 179.326 243.598 179.762 244.626 179.8C246.183 179.858 247.805 179.452 249.332 179.592C250.196 179.671 250.937 180.046 251.826 180.051C256.855 180.075 261.953 179.344 266.975 179.083C268.095 179.024 269.086 179.536 270.203 179.555C273.181 179.605 276.156 179.308 279.144 179.308V180.053C282.623 179.981 286.098 179.397 289.575 179.312C295.714 179.161 301.833 179.556 307.952 179.556V157.205L304.972 157.701V152.238L307.456 152.734L307.207 137.834C312.187 137.834 317.136 138.575 322.108 138.579V134.853H339.493C339.321 135.773 339.247 136.651 339.244 137.585C349.849 137.585 360.431 136.095 371.033 136.095C371.033 130.538 371.872 124.992 372.252 119.456C373.266 104.758 374.833 89.3921 372.377 74.753C370.896 65.9229 367.362 55.4948 358.119 52.1756C353.872 50.6507 348.95 50.9239 344.708 52.3199C342.91 52.9119 341.075 54.2692 339.244 54.5808C335.825 55.1635 332.268 54.8041 328.814 54.8888C323.857 55.0102 318.875 55.3818 313.913 55.3818V56.3752C305.933 48.7437 292.984 47.9487 283.366 52.8377C280.344 54.3742 276.521 56.7693 274.922 59.852H274.425C271.862 51.1417 259.981 49.0064 252.322 50.6669C250.797 50.9972 249.253 51.5361 247.852 52.2176C247.042 52.6117 246.039 53.4692 245.12 53.508C244.393 53.5388 243.732 52.9579 243.133 52.6184C241.954 51.9478 240.717 51.3868 239.408 51.0178C234.901 49.7457 230.165 49.972 225.749 51.4082V49.9181C222.093 50.458 218.647 52.3609 215.07 53.2763C211.219 54.2615 206.857 54.2647 202.901 54.212C199.244 54.1634 195.618 53.8127 191.974 53.653C189.419 53.5413 186.53 53.8311 184.026 53.3259C182.882 53.0952 181.834 52.2364 180.798 51.7181C179.15 50.8944 177.404 50.2938 175.583 49.9891C166.422 48.4558 157.067 54.0114 153.48 62.5839C152.087 60.2005 150.754 57.8422 148.757 55.8882C144.082 51.3123 137.535 50.5089 131.376 51.7683C129.741 52.1028 128.14 52.6976 126.658 53.4593C125.691 53.956 124.78 54.7092 123.678 54.852C121.485 55.1357 119.181 54.7981 116.972 54.8948C110.854 55.1627 104.728 55.3818 98.5945 55.3818V56.6235C94.9631 53.0222 90.0753 50.5755 84.9353 50.1664C86.4283 49.7251 88.1044 49.9181 89.6539 49.9181H98.3461V50.9115C101.826 50.8397 105.3 50.2554 108.777 50.1702C114.915 50.0197 121.034 50.4148 127.155 50.4148V28.0634L124.174 28.5601V23.0964L126.658 23.5931V0C122.266 0.0121691 117.885 0.882135 113.495 0.98967C108.357 1.11558 103.221 0.220037 98.0978 0C98.0978 0.446283 98.1012 0.377738 98.3461 0.745046C94.6482 0.745046 90.84 0.347192 87.1704 0.506383C78.2577 0.893311 68.9399 1.64109 60.1004 0Z" fill="#243041"/>
<path d="M27.4123 36.7268C26.9805 45.2771 26.6134 53.7627 26.3111 62.1834C26.0088 70.561 25.7929 78.9818 25.6634 87.4457C26.743 87.5321 27.8226 87.5753 28.9021 87.5753C30.0249 87.5753 31.1261 87.5753 32.2057 87.5753C33.5875 87.5753 34.991 87.5537 36.4161 87.5105C37.8843 87.4673 39.3525 87.4025 40.8208 87.3162C40.9071 85.4161 40.9503 83.5592 40.9503 81.7455C40.9503 79.8886 40.9503 77.9886 40.9503 76.0453C40.9503 69.4814 40.8855 62.9391 40.756 56.4184C40.6264 49.8977 40.4105 43.3339 40.1082 36.7268H56.0429C55.2656 47.134 54.661 57.4764 54.2292 67.7541C53.8406 77.9886 53.6462 88.3094 53.6462 98.7166C53.6462 103.812 53.711 108.886 53.8406 113.939C53.9701 118.991 54.1428 124.087 54.3588 129.226H39.59C39.806 124.087 40.0003 118.97 40.173 113.874C40.3457 108.778 40.5185 103.683 40.6912 98.587C38.2298 98.4575 35.7683 98.3495 33.3068 98.2632C30.8886 98.1336 28.4703 98.0688 26.052 98.0688H25.5338V111.413C25.5338 114.435 25.5338 117.415 25.5338 120.351C25.5338 123.288 25.577 126.246 25.6634 129.226H10.8299C11.0458 123.007 11.1753 116.875 11.2185 110.83C11.3049 104.741 11.3481 98.6302 11.3481 92.4982C11.3481 73.9293 10.9594 55.3389 10.1821 36.7268H27.4123Z" fill="url(#paint0_linear_69_3964)"/>
<path d="M101.046 88.4821C101.046 95.3051 101.003 102.128 100.917 108.951C100.873 115.774 100.744 122.878 100.528 130.262L89.257 129.614V120.87C87.9615 123.202 86.4933 124.994 84.8523 126.246C83.2113 127.455 81.6567 128.362 80.1885 128.967C78.4612 129.658 76.7554 130.046 75.0713 130.133C72.9985 130.133 71.0552 129.679 69.2415 128.772C67.4278 127.822 65.8516 126.57 64.5129 125.015C63.1742 123.461 62.1162 121.69 61.3389 119.704C60.6048 117.674 60.2378 115.58 60.2378 113.421C60.2378 110.959 60.756 108.541 61.7924 106.166C62.8719 103.747 64.6856 101.567 67.2335 99.6234C70.645 96.9893 73.603 94.7869 76.1077 93.0164C78.6123 91.2459 80.6851 89.6481 82.3261 88.223C84.0102 86.7548 85.2409 85.3729 86.0182 84.0774C86.8387 82.7387 87.249 81.2057 87.249 79.4784C87.249 76.6283 86.774 74.5123 85.8239 73.1304C84.8739 71.7054 83.6216 70.9928 82.067 70.9928C81.1169 70.9928 80.2964 71.2519 79.6055 71.7701C78.9578 72.2452 78.418 72.8929 77.9861 73.7134C77.5975 74.4907 77.2952 75.376 77.0793 76.3692C76.9065 77.3192 76.8202 78.2692 76.8202 79.2193C76.8202 79.867 76.8418 80.5796 76.885 81.3569C76.9713 82.1342 77.1225 82.9546 77.3384 83.8183L62.4401 84.0774C62.3537 83.3433 62.289 82.6524 62.2458 82.0046C62.2026 81.3137 62.181 80.6443 62.181 79.9966C62.181 77.3192 62.6344 74.685 63.5413 72.094C64.4481 69.4598 65.7652 67.1279 67.4926 65.0983C69.2631 63.0255 71.4007 61.3629 73.9053 60.1106C76.4099 58.8583 79.2816 58.2321 82.5204 58.2321C86.7092 58.2321 90.0127 59.1174 92.431 60.8879C94.8924 62.6153 96.7493 64.904 98.0016 67.7541C99.2971 70.6042 100.118 73.8429 100.463 77.4704C100.852 81.0546 101.046 84.7252 101.046 88.4821ZM86.4717 106.813C86.6876 105.734 86.8819 104.503 87.0546 103.121C87.2274 101.955 87.3785 100.552 87.5081 98.9109C87.6376 97.2268 87.7456 95.3483 87.832 93.2755C87.141 94.2255 86.4717 95.0676 85.8239 95.8017C85.1762 96.5358 84.5716 97.1836 84.0102 97.745C83.3625 98.3927 82.7579 98.9757 82.1965 99.4939C81.2033 100.314 80.1453 101.243 79.0225 102.279C77.8998 103.272 76.8634 104.33 75.9133 105.453C75.0065 106.576 74.2292 107.742 73.5814 108.951C72.9769 110.117 72.6746 111.261 72.6746 112.384C72.6746 113.593 73.0848 114.716 73.9053 115.752C74.7258 116.746 75.7406 117.242 76.9497 117.242C77.8566 117.242 78.785 116.983 79.7351 116.465C80.7283 115.947 81.6567 115.213 82.5204 114.263C83.4272 113.313 84.2261 112.211 84.9171 110.959C85.608 109.707 86.1262 108.325 86.4717 106.813Z" fill="url(#paint1_linear_69_3964)"/>
<path d="M134.325 129.355C135.275 122.403 135.944 115.364 136.333 108.239C136.765 101.113 136.981 93.6425 136.981 85.8263C136.981 83.1922 136.808 81.0978 136.463 79.5432C136.117 77.9454 135.664 76.7362 135.102 75.9158C134.541 75.0521 133.936 74.5123 133.289 74.2964C132.641 74.0373 132.015 73.9077 131.41 73.9077C130.546 73.9077 129.726 74.0589 128.949 74.3611C128.214 74.6634 127.524 75.2464 126.876 76.1101C126.228 76.9737 125.623 78.1829 125.062 79.7375C124.544 81.2921 124.09 83.3433 123.702 85.8911C123.313 88.4389 123.011 91.5481 122.795 95.2187C122.622 98.8461 122.536 103.186 122.536 108.239C122.536 110.052 122.536 111.952 122.536 113.939C122.536 115.882 122.536 117.739 122.536 119.509C122.579 121.28 122.601 122.856 122.601 124.238C122.644 125.577 122.709 126.527 122.795 127.088L108.156 126.959C108.285 123.029 108.372 119.531 108.415 116.465C108.501 113.356 108.566 110.506 108.609 107.915C108.652 105.324 108.674 102.905 108.674 100.66C108.717 98.3711 108.739 96.1256 108.739 93.9232C108.739 91.9368 108.717 89.9072 108.674 87.8344C108.674 85.7184 108.652 83.4513 108.609 81.033C108.609 78.6147 108.566 75.9805 108.48 73.1304C108.436 70.2371 108.372 67.0416 108.285 63.5437L123.443 63.1551L123.184 69.7621C124.35 67.5598 125.602 65.8108 126.941 64.5153C128.279 63.1766 129.596 62.1402 130.892 61.4061C132.231 60.672 133.526 60.197 134.778 59.9811C136.031 59.722 137.153 59.5924 138.147 59.5924C140.824 59.5924 143.026 60.5209 144.754 62.3778C146.481 64.2346 147.841 66.7177 148.835 69.8269C149.871 72.8929 150.583 76.4124 150.972 80.3852C151.361 84.3581 151.555 88.4821 151.555 92.7573C151.555 95.8665 151.469 99.0189 151.296 102.214C151.166 105.41 150.994 108.562 150.778 111.672C150.605 114.738 150.389 117.717 150.13 120.611C149.914 123.461 149.72 126.116 149.547 128.578L134.325 129.355Z" fill="url(#paint2_linear_69_3964)"/>
<path d="M199.02 112.384C198.847 117.48 198.674 121.992 198.502 125.922C198.329 129.809 197.983 133.22 197.465 136.157C196.947 139.093 196.17 141.555 195.133 143.541C194.097 145.527 192.65 147.125 190.793 148.334C188.98 149.543 186.648 150.407 183.798 150.925C180.991 151.487 177.536 151.767 173.434 151.767C171.404 151.767 169.223 151.681 166.891 151.508C164.559 151.379 162.055 151.076 159.377 150.601L159.896 136.351C163.091 136.567 165.898 136.74 168.316 136.869C170.778 136.999 172.829 137.107 174.47 137.193C176.413 137.323 178.097 137.409 179.522 137.452C181.595 137.452 183.15 136.243 184.186 133.825C185.266 131.406 185.87 128.06 186 123.785C185.223 125.512 184.337 126.915 183.344 127.995C182.394 129.075 181.401 129.917 180.365 130.521C179.371 131.169 178.378 131.601 177.385 131.817C176.435 132.033 175.55 132.141 174.729 132.141C172.527 132.141 170.346 131.471 168.187 130.133C166.028 128.794 164.084 126.591 162.357 123.525C160.673 120.416 159.291 116.379 158.211 111.413C157.132 106.403 156.592 100.228 156.592 92.8868C156.592 87.1866 157.045 82.1773 157.952 77.859C158.902 73.5407 160.155 69.9133 161.709 66.9768C163.264 64.0403 165.056 61.838 167.086 60.3697C169.115 58.8583 171.231 58.1026 173.434 58.1026C174.47 58.1026 175.571 58.2753 176.737 58.6208C177.946 58.9663 179.155 59.5924 180.365 60.4993C181.574 61.3629 182.718 62.5505 183.798 64.0619C184.92 65.5301 185.892 67.4302 186.712 69.7621L186.583 61.7948L198.113 62.3778L199.02 112.384ZM184.834 99.1052C184.834 97.7666 184.812 96.1904 184.769 94.3767C184.769 92.5198 184.704 90.6197 184.575 88.6764C184.489 86.69 184.294 84.7468 183.992 82.8467C183.69 80.9466 183.258 79.2409 182.696 77.7295C182.178 76.218 181.487 75.0089 180.624 74.102C179.76 73.152 178.68 72.677 177.385 72.677C175.744 72.677 174.448 73.3679 173.498 74.7498C172.591 76.1317 171.901 77.9022 171.426 80.0614C170.994 82.2205 170.735 84.5956 170.648 87.1866C170.562 89.7776 170.519 92.2823 170.519 94.7005C170.519 96.3847 170.54 98.1552 170.583 100.012C170.67 101.869 170.799 103.726 170.972 105.583C171.145 107.396 171.404 109.124 171.749 110.765C172.095 112.406 172.527 113.874 173.045 115.169C173.563 116.422 174.189 117.415 174.923 118.149C175.701 118.883 176.608 119.25 177.644 119.25C178.939 119.25 180.041 118.732 180.947 117.696C181.854 116.616 182.588 115.169 183.15 113.356C183.754 111.542 184.186 109.426 184.445 107.008C184.704 104.546 184.834 101.912 184.834 99.1052Z" fill="url(#paint3_linear_69_3964)"/>
<path d="M246.29 88.6117C246.117 93.7937 245.945 98.803 245.772 103.64C245.685 105.712 245.599 107.85 245.513 110.052C245.426 112.255 245.318 114.414 245.189 116.53C245.102 118.603 245.016 120.611 244.93 122.554C244.843 124.454 244.757 126.138 244.671 127.606L230.485 128.967C230.83 123.266 231.111 118.279 231.327 114.004C231.543 109.685 231.694 105.993 231.78 102.927C231.91 99.8178 231.996 97.2268 232.04 95.154C232.083 93.0812 232.083 91.4186 232.04 90.1663C232.04 88.914 232.018 87.9855 231.975 87.3809C231.975 86.7764 231.975 86.3877 231.975 86.215C231.975 83.7967 231.867 81.8319 231.651 80.3205C231.478 78.809 231.219 77.6215 230.874 76.7578C230.528 75.8942 230.096 75.3112 229.578 75.0089C229.103 74.7066 228.563 74.5555 227.959 74.5555C227.181 74.5555 226.382 74.7066 225.562 75.0089C224.785 75.268 224.072 75.8294 223.424 76.6931C222.82 77.5135 222.323 78.7011 221.935 80.2557C221.546 81.8103 221.352 83.8831 221.352 86.4741C221.352 91.397 221.352 96.212 221.352 100.919C221.395 105.583 221.46 109.793 221.546 113.55C221.589 117.912 221.654 122.079 221.74 126.052L206.324 127.477C206.669 122.899 206.885 118.43 206.972 114.068C207.101 109.707 207.166 105.777 207.166 102.279C207.166 95.7153 207.015 89.2162 206.712 82.7819C206.453 76.3044 205.978 69.5894 205.287 62.6369C208.051 62.5505 210.318 62.4425 212.089 62.313C213.859 62.1834 215.263 62.0323 216.299 61.8596C217.508 61.6868 218.437 61.4925 219.084 61.2766L219.214 69.1144C220.121 67.6461 221.114 66.2643 222.194 64.9688C223.316 63.6733 224.482 62.5721 225.692 61.6652C226.901 60.7152 228.153 59.9811 229.449 59.4629C230.787 58.9015 232.147 58.6208 233.529 58.6208C235.084 58.6208 236.444 58.7503 237.61 59.0094C238.819 59.2254 239.856 59.6788 240.719 60.3697C241.626 61.0175 242.382 61.9459 242.986 63.1551C243.591 64.321 244.109 65.8324 244.541 67.6893C245.318 66.4802 246.16 65.3358 247.067 64.2562C248.017 63.1335 249.032 62.1618 250.112 61.3414C251.235 60.4777 252.422 59.8083 253.674 59.3333C254.927 58.8583 256.309 58.6208 257.82 58.6208C260.195 58.6208 262.203 58.9015 263.844 59.4629C265.485 60.0243 266.802 61.1686 267.795 62.896C268.832 64.5801 269.566 66.9984 269.998 70.1508C270.473 73.26 270.71 77.384 270.71 82.5228C270.71 89.9072 270.538 97.3131 270.192 104.741C269.847 112.125 269.48 119.747 269.091 127.606L254.905 128.967C255.423 121.021 255.769 114.349 255.942 108.951C256.157 103.51 256.287 99.1268 256.33 95.8017C256.373 92.4766 256.373 90.0799 256.33 88.6117C256.287 87.1003 256.265 86.2582 256.265 86.0854C256.265 83.7104 256.136 81.7671 255.877 80.2557C255.661 78.7443 255.337 77.5783 254.905 76.7578C254.516 75.8942 254.041 75.3112 253.48 75.0089C252.962 74.7066 252.379 74.5555 251.731 74.5555C251.342 74.5555 250.911 74.5987 250.436 74.685C249.961 74.7282 249.464 74.9441 248.946 75.3328C248.428 75.6782 247.909 76.2396 247.391 77.0169C246.916 77.7942 246.463 78.8738 246.031 80.2557C246.16 82.1989 246.225 83.9263 246.225 85.4377C246.268 86.9491 246.29 88.0071 246.29 88.6117Z" fill="url(#paint4_linear_69_3964)"/>
<path d="M315.649 88.4821C315.649 95.3051 315.605 102.128 315.519 108.951C315.476 115.774 315.346 122.878 315.13 130.262L303.86 129.614V120.87C302.564 123.202 301.096 124.994 299.455 126.246C297.814 127.455 296.259 128.362 294.791 128.967C293.064 129.658 291.358 130.046 289.674 130.133C287.601 130.133 285.658 129.679 283.844 128.772C282.03 127.822 280.454 126.57 279.115 125.015C277.777 123.461 276.719 121.69 275.941 119.704C275.207 117.674 274.84 115.58 274.84 113.421C274.84 110.959 275.358 108.541 276.395 106.166C277.474 103.747 279.288 101.567 281.836 99.6234C285.247 96.9893 288.206 94.7869 290.71 93.0164C293.215 91.2459 295.288 89.6481 296.929 88.223C298.613 86.7548 299.843 85.3729 300.621 84.0774C301.441 82.7387 301.852 81.2057 301.852 79.4784C301.852 76.6283 301.376 74.5123 300.426 73.1304C299.476 71.7054 298.224 70.9928 296.669 70.9928C295.719 70.9928 294.899 71.2519 294.208 71.7701C293.56 72.2452 293.02 72.8929 292.589 73.7134C292.2 74.4907 291.898 75.376 291.682 76.3692C291.509 77.3192 291.423 78.2692 291.423 79.2193C291.423 79.867 291.444 80.5796 291.487 81.3569C291.574 82.1342 291.725 82.9546 291.941 83.8183L277.043 84.0774C276.956 83.3433 276.891 82.6524 276.848 82.0046C276.805 81.3137 276.784 80.6443 276.784 79.9966C276.784 77.3192 277.237 74.685 278.144 72.094C279.051 69.4598 280.368 67.1279 282.095 65.0983C283.866 63.0255 286.003 61.3629 288.508 60.1106C291.012 58.8583 293.884 58.2321 297.123 58.2321C301.312 58.2321 304.615 59.1174 307.034 60.8879C309.495 62.6153 311.352 64.904 312.604 67.7541C313.9 70.6042 314.72 73.8429 315.066 77.4704C315.454 81.0546 315.649 84.7252 315.649 88.4821ZM301.074 106.813C301.29 105.734 301.484 104.503 301.657 103.121C301.83 101.955 301.981 100.552 302.111 98.9109C302.24 97.2268 302.348 95.3483 302.434 93.2755C301.744 94.2255 301.074 95.0676 300.426 95.8017C299.779 96.5358 299.174 97.1836 298.613 97.745C297.965 98.3927 297.36 98.9757 296.799 99.4939C295.806 100.314 294.748 101.243 293.625 102.279C292.502 103.272 291.466 104.33 290.516 105.453C289.609 106.576 288.832 107.742 288.184 108.951C287.579 110.117 287.277 111.261 287.277 112.384C287.277 113.593 287.687 114.716 288.508 115.752C289.328 116.746 290.343 117.242 291.552 117.242C292.459 117.242 293.388 116.983 294.338 116.465C295.331 115.947 296.259 115.213 297.123 114.263C298.03 113.313 298.829 112.211 299.52 110.959C300.211 109.707 300.729 108.325 301.074 106.813Z" fill="url(#paint5_linear_69_3964)"/>
<path d="M348.927 129.355C349.878 122.403 350.547 115.364 350.936 108.239C351.367 101.113 351.583 93.6425 351.583 85.8263C351.583 83.1922 351.411 81.0978 351.065 79.5432C350.72 77.9454 350.266 76.7362 349.705 75.9158C349.143 75.0521 348.539 74.5123 347.891 74.2964C347.243 74.0373 346.617 73.9077 346.013 73.9077C345.149 73.9077 344.328 74.0589 343.551 74.3611C342.817 74.6634 342.126 75.2464 341.478 76.1101C340.831 76.9737 340.226 78.1829 339.665 79.7375C339.146 81.2921 338.693 83.3433 338.304 85.8911C337.916 88.4389 337.613 91.5481 337.397 95.2187C337.225 98.8461 337.138 103.186 337.138 108.239C337.138 110.052 337.138 111.952 337.138 113.939C337.138 115.882 337.138 117.739 337.138 119.509C337.182 121.28 337.203 122.856 337.203 124.238C337.246 125.577 337.311 126.527 337.397 127.088L322.758 126.959C322.888 123.029 322.974 119.531 323.017 116.465C323.104 113.356 323.169 110.506 323.212 107.915C323.255 105.324 323.277 102.905 323.277 100.66C323.32 98.3711 323.341 96.1256 323.341 93.9232C323.341 91.9368 323.32 89.9072 323.277 87.8344C323.277 85.7184 323.255 83.4513 323.212 81.033C323.212 78.6147 323.169 75.9805 323.082 73.1304C323.039 70.2371 322.974 67.0416 322.888 63.5437L338.045 63.1551L337.786 69.7621C338.952 67.5598 340.204 65.8108 341.543 64.5153C342.882 63.1766 344.199 62.1402 345.494 61.4061C346.833 60.672 348.129 60.197 349.381 59.9811C350.633 59.722 351.756 59.5924 352.749 59.5924C355.427 59.5924 357.629 60.5209 359.356 62.3778C361.084 64.2346 362.444 66.7177 363.437 69.8269C364.474 72.8929 365.186 76.4124 365.575 80.3852C365.963 84.3581 366.158 88.4821 366.158 92.7573C366.158 95.8665 366.071 99.0189 365.899 102.214C365.769 105.41 365.596 108.562 365.38 111.672C365.208 114.738 364.992 117.717 364.733 120.611C364.517 123.461 364.322 126.116 364.15 128.578L348.927 129.355Z" fill="url(#paint6_linear_69_3964)"/>
<path d="M81.5309 12.8894C81.0359 12.8585 80.4636 12.8352 79.8139 12.8198C79.1797 12.8043 78.4991 12.7966 77.7721 12.7966C77.6638 14.2352 77.571 15.7279 77.4936 17.2748C77.4317 18.8062 77.3776 20.3685 77.3312 21.9618C77.2848 23.5396 77.2539 25.1329 77.2384 26.7416C77.2229 28.3349 77.2152 29.9127 77.2152 31.475C77.2152 33.2539 77.2229 34.9787 77.2384 36.6493C77.2693 38.3044 77.3235 39.9054 77.4008 41.4523H72.4586C72.5978 38.8226 72.7061 36.0228 72.7834 33.0528C72.8607 30.0828 72.8994 27.0896 72.8994 24.0732C72.8994 22.1087 72.8762 20.1906 72.8298 18.3189C72.7834 16.4472 72.737 14.6219 72.6906 12.843C71.9481 12.843 71.2443 12.8507 70.5791 12.8662C69.914 12.8817 69.3184 12.9049 68.7925 12.9358L68.8389 8.08636C69.3958 8.13277 70.0222 8.17144 70.7183 8.20238C71.4144 8.21785 72.1415 8.23331 72.8994 8.24878C73.6729 8.26425 74.4618 8.27972 75.2661 8.29519C76.0705 8.29519 76.8594 8.29519 77.6328 8.29519C78.4063 8.29519 79.1333 8.29519 79.8139 8.29519C80.51 8.29519 81.1288 8.27972 81.6702 8.24878L81.5309 12.8894Z" fill="white"/>
<path d="M92.0512 8.03996C91.8965 11.1028 91.765 14.1424 91.6567 17.1587C91.5485 20.1597 91.4711 23.1761 91.4247 26.2079C91.8114 26.2389 92.1981 26.2543 92.5849 26.2543C92.9871 26.2543 93.3815 26.2543 93.7682 26.2543C94.2632 26.2543 94.7659 26.2466 95.2764 26.2311C95.8024 26.2157 96.3283 26.1925 96.8542 26.1615C96.8852 25.4809 96.9006 24.8157 96.9006 24.1661C96.9006 23.5009 96.9006 22.8203 96.9006 22.1242C96.9006 19.773 96.8774 17.4294 96.831 15.0937C96.7846 12.7579 96.7073 10.4067 96.599 8.03996H102.307C102.028 11.7679 101.812 15.4727 101.657 19.1542C101.518 22.8203 101.448 26.5173 101.448 30.2453C101.448 32.0706 101.472 33.8881 101.518 35.698C101.564 37.5078 101.626 39.3331 101.704 41.1739H96.4134C96.4907 39.3331 96.5603 37.5001 96.6222 35.6748C96.6841 33.8495 96.7459 32.0241 96.8078 30.1988C95.9261 30.1524 95.0444 30.1138 94.1627 30.0828C93.2964 30.0364 92.4302 30.0132 91.5639 30.0132H91.3783V34.793C91.3783 35.8759 91.3783 36.9432 91.3783 37.9951C91.3783 39.0469 91.3938 40.1065 91.4247 41.1739H86.1112C86.1886 38.9464 86.235 36.7498 86.2504 34.5842C86.2814 32.4031 86.2968 30.2143 86.2968 28.0178C86.2968 21.3662 86.1576 14.707 85.8792 8.03996H92.0512Z" fill="white"/>
<path d="M116.865 28.9459C116.385 28.9149 115.898 28.8917 115.403 28.8763C114.908 28.8608 114.413 28.8531 113.918 28.8531C113.639 28.8531 113.345 28.8608 113.036 28.8763C112.742 28.8917 112.448 28.8995 112.154 28.8995L112.061 37.183C113.33 37.152 114.56 37.0901 115.751 36.9973C116.957 36.9045 118.233 36.7576 119.579 36.5565V41.4059C118.713 41.375 117.87 41.3518 117.05 41.3363C116.246 41.3208 115.441 41.3131 114.637 41.3131C113.43 41.3131 112.239 41.3286 111.064 41.3595C109.888 41.4059 108.674 41.4678 107.421 41.5451C107.56 38.6679 107.668 35.8217 107.746 33.0064C107.839 30.1756 107.885 27.3217 107.885 24.4445C107.885 21.6911 107.846 18.9608 107.769 16.2538C107.707 13.5313 107.591 10.7934 107.421 8.03996C109.246 8.17917 110.986 8.24878 112.642 8.24878C113.693 8.24878 114.738 8.22558 115.774 8.17917C116.826 8.1173 117.947 8.03996 119.138 7.94714V13.2838C118.179 13.1137 117.228 12.9822 116.284 12.8894C115.356 12.7966 114.428 12.7502 113.5 12.7502H112.595C112.44 14.6838 112.332 16.6096 112.27 18.5277C112.224 20.4458 112.185 22.3717 112.154 24.3053C112.556 24.3362 112.959 24.3517 113.361 24.3517C113.779 24.3517 114.204 24.3517 114.637 24.3517C114.993 24.3517 115.356 24.3517 115.728 24.3517C116.099 24.3517 116.478 24.3362 116.865 24.3053V28.9459Z" fill="white"/>
<path d="M237.505 154.687C237.428 155.244 237.343 155.878 237.25 156.59C237.173 157.301 237.103 158.067 237.041 158.887C236.979 159.691 236.925 160.542 236.879 161.439C236.848 162.321 236.832 163.21 236.832 164.108C236.832 164.309 236.84 164.603 236.856 164.989C236.887 165.36 236.917 165.778 236.948 166.242C236.979 166.691 237.01 167.163 237.041 167.658C237.088 168.137 237.126 168.593 237.157 169.027C237.204 169.444 237.242 169.808 237.273 170.117C237.304 170.426 237.335 170.635 237.366 170.744C236.763 171.022 236.167 171.231 235.579 171.37C234.992 171.525 234.466 171.641 234.002 171.718C233.46 171.795 232.934 171.842 232.424 171.857C231.867 171.857 231.264 171.757 230.614 171.556C229.98 171.355 229.338 171.014 228.688 170.535C228.038 170.04 227.412 169.375 226.809 168.539C226.205 167.689 225.672 166.629 225.208 165.36C224.744 164.077 224.372 162.545 224.094 160.766C223.815 158.987 223.676 156.915 223.676 154.548C223.676 152.181 223.839 150.116 224.164 148.353C224.504 146.589 224.937 145.081 225.463 143.828C226.004 142.56 226.608 141.523 227.273 140.719C227.953 139.899 228.642 139.257 229.338 138.793C230.034 138.313 230.707 137.989 231.356 137.818C232.022 137.633 232.594 137.54 233.073 137.54C233.522 137.556 233.963 137.602 234.396 137.679C234.767 137.757 235.154 137.873 235.556 138.027C235.974 138.182 236.337 138.399 236.647 138.677L236.183 143.341C235.75 143.124 235.34 142.97 234.953 142.877C234.582 142.768 234.226 142.714 233.886 142.714C233.236 142.714 232.656 142.892 232.145 143.248C231.65 143.588 231.217 144.045 230.846 144.617C230.49 145.189 230.181 145.839 229.918 146.566C229.67 147.293 229.469 148.036 229.315 148.794C228.928 150.572 228.711 152.599 228.665 154.873C228.711 156.837 228.889 158.639 229.199 160.279C229.338 160.975 229.508 161.671 229.709 162.367C229.926 163.063 230.181 163.713 230.475 164.316C230.784 164.904 231.14 165.415 231.542 165.848C231.96 166.281 232.439 166.582 232.981 166.753C232.95 164.742 232.849 162.746 232.679 160.766C232.524 158.786 232.292 156.791 231.983 154.78L237.505 154.687Z" fill="white"/>
<path d="M251.715 171.509C251.637 170.442 251.56 169.367 251.483 168.284C251.421 167.201 251.344 166.111 251.251 165.012C250.57 164.966 249.913 164.92 249.278 164.873C248.644 164.827 248.002 164.804 247.353 164.804H247.051C246.974 165.917 246.904 167.016 246.842 168.098C246.78 169.181 246.726 170.256 246.68 171.324L240.879 171.231C241.838 165.709 242.704 160.202 243.478 154.71C244.251 149.219 244.909 143.681 245.45 138.097L252.434 138.213C253.022 143.735 253.726 149.227 254.546 154.687C255.381 160.132 256.355 165.616 257.469 171.138L251.715 171.509ZM249 143.944C248.691 146.79 248.397 149.629 248.118 152.46C247.84 155.29 247.585 158.144 247.353 161.022C247.677 161.052 248.01 161.068 248.35 161.068C248.691 161.068 249.039 161.068 249.395 161.068H250.903C250.64 158.191 250.346 155.337 250.021 152.506C249.696 149.675 249.356 146.821 249 143.944Z" fill="white"/>
<path d="M277.781 171.37C277.827 169.003 277.882 166.598 277.944 164.154C277.959 163.118 277.974 162.019 277.99 160.859C278.021 159.699 278.044 158.523 278.06 157.332C278.075 156.141 278.083 154.95 278.083 153.759C278.098 152.568 278.106 151.423 278.106 150.325C278.106 149.598 278.106 148.91 278.106 148.26C278.106 147.595 278.09 146.968 278.06 146.38C277.874 147.525 277.634 149.002 277.34 150.812C277.062 152.607 276.768 154.594 276.459 156.775C276.149 158.941 275.84 161.238 275.53 163.667C275.236 166.095 274.974 168.508 274.741 170.906L270.333 170.79C269.962 168.377 269.598 166.002 269.242 163.667C268.902 161.331 268.569 159.111 268.245 157.007C267.935 154.904 267.649 152.955 267.386 151.16C267.123 149.366 266.899 147.804 266.713 146.473V154.548C266.713 156.218 266.721 157.905 266.736 159.606C266.752 161.292 266.767 162.885 266.783 164.386C266.814 165.886 266.852 167.24 266.899 168.446C266.945 169.638 267.007 170.566 267.084 171.231L260.773 171.602C261.005 170.287 261.191 168.81 261.33 167.17C261.485 165.531 261.601 163.814 261.678 162.019C261.771 160.225 261.833 158.4 261.864 156.543C261.895 154.687 261.91 152.885 261.91 151.137C261.91 149.343 261.895 147.664 261.864 146.102C261.848 144.54 261.825 143.171 261.794 141.995C261.748 140.618 261.709 139.358 261.678 138.213C262.173 138.29 262.691 138.36 263.233 138.422C263.774 138.468 264.308 138.507 264.834 138.538C265.36 138.569 265.87 138.592 266.365 138.607C266.86 138.623 267.309 138.631 267.711 138.631C267.974 138.631 268.214 138.631 268.43 138.631C268.662 138.631 268.863 138.623 269.034 138.607C269.219 138.607 269.382 138.6 269.521 138.584C270.263 143.72 270.89 148.051 271.4 151.578C271.911 155.105 272.313 157.789 272.607 159.629C272.777 158.454 272.939 157.247 273.094 156.01C273.264 154.757 273.419 153.519 273.558 152.297C273.697 151.075 273.821 149.884 273.929 148.724C274.053 147.548 274.161 146.442 274.254 145.406C274.471 142.962 274.664 140.595 274.834 138.306C275.175 138.337 275.546 138.368 275.948 138.399C276.304 138.429 276.721 138.453 277.201 138.468C277.696 138.484 278.237 138.491 278.825 138.491C279.413 138.491 280.047 138.484 280.728 138.468C281.408 138.437 282.12 138.383 282.863 138.306C282.677 144.091 282.584 149.095 282.584 153.318C282.584 156.427 282.615 159.103 282.677 161.346C282.754 163.589 282.832 165.446 282.909 166.915C283.002 168.648 283.118 170.086 283.257 171.231L277.781 171.37Z" fill="white"/>
<path d="M297.954 158.91C297.474 158.879 296.987 158.856 296.492 158.84C295.997 158.825 295.502 158.817 295.007 158.817C294.729 158.817 294.435 158.825 294.125 158.84C293.831 158.856 293.537 158.864 293.244 158.864L293.151 167.147C294.419 167.116 295.649 167.054 296.84 166.961C298.047 166.869 299.323 166.722 300.669 166.521V171.37C299.802 171.339 298.959 171.316 298.139 171.3C297.335 171.285 296.531 171.277 295.726 171.277C294.52 171.277 293.329 171.293 292.153 171.324C290.977 171.37 289.763 171.432 288.51 171.509C288.649 168.632 288.758 165.786 288.835 162.971C288.928 160.14 288.974 157.286 288.974 154.409C288.974 151.655 288.936 148.925 288.858 146.218C288.796 143.495 288.68 140.758 288.51 138.004C290.335 138.143 292.076 138.213 293.731 138.213C294.783 138.213 295.827 138.19 296.863 138.143C297.915 138.081 299.037 138.004 300.228 137.911V143.248C299.269 143.078 298.317 142.946 297.374 142.854C296.446 142.761 295.517 142.714 294.589 142.714H293.684C293.53 144.648 293.421 146.574 293.36 148.492C293.313 150.41 293.275 152.336 293.244 154.269C293.646 154.3 294.048 154.316 294.45 154.316C294.868 154.316 295.293 154.316 295.726 154.316C296.082 154.316 296.446 154.316 296.817 154.316C297.188 154.316 297.567 154.3 297.954 154.269V158.91Z" fill="white"/>
<defs>
<linearGradient id="paint0_linear_69_3964" x1="187.749" y1="28.2028" x2="187.749" y2="161.424" gradientUnits="userSpaceOnUse">
<stop stop-color="#67B6FF"/>
<stop offset="1" stop-color="white"/>
</linearGradient>
<linearGradient id="paint1_linear_69_3964" x1="187.749" y1="28.2028" x2="187.749" y2="161.424" gradientUnits="userSpaceOnUse">
<stop stop-color="#67B6FF"/>
<stop offset="1" stop-color="white"/>
</linearGradient>
<linearGradient id="paint2_linear_69_3964" x1="187.749" y1="28.2028" x2="187.749" y2="161.424" gradientUnits="userSpaceOnUse">
<stop stop-color="#67B6FF"/>
<stop offset="1" stop-color="white"/>
</linearGradient>
<linearGradient id="paint3_linear_69_3964" x1="187.749" y1="28.2028" x2="187.749" y2="161.424" gradientUnits="userSpaceOnUse">
<stop stop-color="#67B6FF"/>
<stop offset="1" stop-color="white"/>
</linearGradient>
<linearGradient id="paint4_linear_69_3964" x1="187.749" y1="28.2028" x2="187.749" y2="161.424" gradientUnits="userSpaceOnUse">
<stop stop-color="#67B6FF"/>
<stop offset="1" stop-color="white"/>
</linearGradient>
<linearGradient id="paint5_linear_69_3964" x1="187.749" y1="28.2028" x2="187.749" y2="161.424" gradientUnits="userSpaceOnUse">
<stop stop-color="#67B6FF"/>
<stop offset="1" stop-color="white"/>
</linearGradient>
<linearGradient id="paint6_linear_69_3964" x1="187.749" y1="28.2028" x2="187.749" y2="161.424" gradientUnits="userSpaceOnUse">
<stop stop-color="#67B6FF"/>
<stop offset="1" stop-color="white"/>
</linearGradient>
</defs>
</svg>
